<?xml version="1.0" encoding="utf-8"?>
<!-- Generator: Adobe Illustrator 18.0.0, SVG Export Plug-In . SVG Version: 6.00 Build 0)  -->
<!DOCTYPE svg PUBLIC "-//W3C//DTD SVG 1.1//EN" "http://www.w3.org/Graphics/SVG/1.1/DTD/svg11.dtd">
<svg version="1.1" id="_x31_0" xmlns="http://www.w3.org/2000/svg" xmlns:xlink="http://www.w3.org/1999/xlink" x="0px" y="0px"
	 viewBox="0 0 512 512" style="enable-background:new 0 0 512 512;" xml:space="preserve">
<style type="text/css">
	.st0{fill:#374149;}
</style>
<g>
	<path class="st0" d="M467.918,100.476c-24.878-12.957-57.519-20.156-92-20.156c-34.402,0-67.121,7.199-91.918,20.156
		c-11.523,5.922-20.883,12.961-28,20.723c-7.125-7.762-16.484-14.801-28-20.723C203.117,87.52,170.477,80.32,136.078,80.32
		c-34.481,0-67.118,7.199-92,20.156C15.68,115.277,0,136.32,0,159.68v223.359c0,10.122,8.203,18.321,18.32,18.321h42.11
		c2.516,0,4.946-0.551,7.25-1.535c17.703-7.558,41.469-12.625,68.398-12.625c47.203,0,84.718,15.598,96.961,32.801
		c0.32,0.398,0.641,0.797,0.961,1.277c5.359,6.562,13.438,10.402,22,10.402c8.558,0,16.641-3.84,22-10.402
		c0.32-0.48,0.641-0.878,0.961-1.277c12.234-17.203,49.758-32.801,96.957-32.801c27.008,0,50.778,5.066,68.477,12.625
		c2.309,0.984,4.738,1.535,7.254,1.535h42.031c10.117,0,18.32-8.199,18.32-18.321V159.68C512,136.32,496.32,115.277,467.918,100.476
		z M237.282,361.117c-2.883-1.84-6-3.598-9.282-5.278c-24.883-12.961-57.523-20.16-91.922-20.16c-34.481,0-67.118,7.199-92,20.16
		c-3.203,1.68-6.321,3.438-9.282,5.278V159.68c0-21.039,43.282-44.48,101.282-44.48c57.922,0,101.203,23.441,101.203,44.48V361.117z
		 M477.195,361.117c-2.957-1.84-6.078-3.598-9.278-5.278c-24.878-12.961-57.519-20.16-92-20.16c-34.402,0-67.121,7.199-91.918,20.16
		c-3.282,1.68-6.402,3.438-9.282,5.278V159.68c0-18.5,33.485-38.843,80.946-43.484v50.859v65l29-32l29,32v-65v-48.32
		c38.031,7.304,63.531,24.812,63.531,40.945V361.117z"/>
</g>
</svg>
