<?xml version="1.0" encoding="utf-8"?>
<!-- Generator: Adobe Illustrator 18.0.0, SVG Export Plug-In . SVG Version: 6.00 Build 0)  -->
<!DOCTYPE svg PUBLIC "-//W3C//DTD SVG 1.1//EN" "http://www.w3.org/Graphics/SVG/1.1/DTD/svg11.dtd">
<svg version="1.1" id="_x31_0" xmlns="http://www.w3.org/2000/svg" xmlns:xlink="http://www.w3.org/1999/xlink" x="0px" y="0px"
	 viewBox="0 0 512 512" style="enable-background:new 0 0 512 512;" xml:space="preserve">
<style type="text/css">
	.st0{fill:#374149;}
</style>
<g>
	<path class="st0" d="M256,0C114.617,0,0,114.614,0,256c0,141.383,114.617,256,256,256s256-114.617,256-256
		C512,114.614,397.383,0,256,0z M256,448c-105.867,0-192-86.133-192-192S150.133,64,256,64s192,86.133,192,192S361.867,448,256,448z
		"/>
	<path class="st0" d="M400.203,171.558c-16.883-10.082-39.446-16.562-63.446-18.32c-4.234-0.321-8.476-0.481-12.641-0.481
		c-19.273,0-37.914,3.282-52.64,9.282c-5.836,2.398-11.039,5.199-15.438,8.398c-4.477-3.199-9.68-6-15.602-8.398
		c-14.641-6-33.359-9.282-52.554-9.282c-4.165,0-8.406,0.16-12.641,0.481c-24,1.758-46.562,8.238-63.446,18.32
		c-20.156,12-30.234,28.16-27.68,44.398l19.203,121.199c1.36,8.801,8.962,15.282,18.078,15.282c0.883,0,1.844-0.082,2.718-0.238
		c9.282-1.359,14-2,23.282-3.121c2.398-0.238,4.718-1.039,6.883-2.238c9.359-5.203,21.602-8.641,34.476-9.602
		c2.485-0.16,4.961-0.242,7.282-0.242c20.398,0,36.242,6.562,41.125,13.043l0.554,0.718c4.563,5.359,11.203,8.481,18.321,8.481
		c7.039,0,13.679-3.122,18.242-8.481l0.882-1.121c4.554-6.078,20.398-12.641,40.719-12.641c2.398,0,4.874,0.082,7.359,0.242
		c12.961,0.961,25.195,4.398,34.476,9.602c2.242,1.199,4.563,2,6.962,2.238c9.281,1.121,13.922,1.762,23.203,3.121
		c0.874,0.156,1.835,0.238,2.718,0.238c9.117,0,16.718-6.481,18.078-15.282l19.203-121.199
		C430.438,199.718,420.359,183.558,400.203,171.558z M239.883,309.718c-14.485-6.801-33.766-10.082-53.766-8.64
		c-20.078,1.441-38.718,7.519-52,16.398c-1.758,1.199-3.437,2.402-4.953,3.602c-6-43.84-8.961-65.762-14.961-109.602
		c-1.602-11.438,24.961-28.398,62.961-31.199c38.078-2.801,66.719,10.078,66.797,21.602c0.562,44.238,0.797,66.398,1.282,110.64
		C243.562,311.558,241.718,310.598,239.883,309.718z M382.844,321.078c-1.524-1.199-3.203-2.402-4.883-3.602
		c-13.359-8.879-32-14.958-52.078-16.398c-20-1.442-39.36,1.839-53.766,8.64c-1.835,0.879-3.679,1.84-5.359,2.801
		c0.485-44.242,0.805-66.402,1.282-110.64c0.078-10.161,22.164-21.282,53.438-21.922c-0.719,11.122-1.039,16.719-1.68,27.84
		c-0.875,14.32-1.359,21.442-2.234,35.68c7.602-6.559,11.438-9.84,19.282-16.321c6.718,7.602,10.078,11.442,16.554,19.122
		c1.359-14.161,2-21.282,3.446-35.52c0.953-10.558,1.515-15.84,2.554-26.402c24.485,6.402,39.602,18.321,38.398,27.122
		C391.797,255.317,388.844,277.238,382.844,321.078z"/>
</g>
</svg>
